<svg xmlns="http://www.w3.org/2000/svg" width="1400" height="900" viewBox="0 0 1400 900" role="img" aria-label="Elegant living room interior illustration">
  <defs>
    <linearGradient id="bg" x1="0" y1="0" x2="1" y2="1">
      <stop offset="0" stop-color="#f6ede3"/>
      <stop offset="1" stop-color="#dfc3a3"/>
    </linearGradient>
    <linearGradient id="wall" x1="0" y1="0" x2="0" y2="1">
      <stop offset="0" stop-color="#fff8f0"/>
      <stop offset="1" stop-color="#f0dfcd"/>
    </linearGradient>
  </defs>
  <rect width="1400" height="900" fill="url(#bg)"/>
  <rect x="110" y="90" width="1180" height="580" rx="24" fill="url(#wall)"/>
  <rect x="110" y="620" width="1180" height="170" fill="#ccb197"/>
  <rect x="245" y="420" width="780" height="170" rx="36" fill="#b68256"/>
  <rect x="270" y="360" width="730" height="110" rx="28" fill="#d7b18d"/>
  <rect x="1140" y="220" width="70" height="360" rx="35" fill="#d7ae81"/>
  <circle cx="1175" cy="190" r="62" fill="#f9e4b7"/>
  <rect x="430" y="270" width="220" height="120" rx="18" fill="#f2e1d0"/>
  <rect x="700" y="270" width="220" height="120" rx="18" fill="#f2e1d0"/>
  <rect x="335" y="505" width="165" height="16" rx="8" fill="#ead7c2"/>
  <rect x="550" y="505" width="165" height="16" rx="8" fill="#ead7c2"/>
  <rect x="765" y="505" width="165" height="16" rx="8" fill="#ead7c2"/>
  <text x="700" y="760" text-anchor="middle" font-family="Georgia, serif" font-size="44" fill="#4b3c2d">Aura Signature Living</text>
</svg>
